<?xml version="1.0" encoding="utf-8" standalone="yes"?>
<!DOCTYPE svg PUBLIC "-//W3C//DTD SVG 1.1//EN" "http://www.w3.org/Graphics/SVG/1.1/DTD/svg11.dtd">
<svg xmlns="http://www.w3.org/2000/svg" xmlns:xlink="http://www.w3.org/1999/xlink" xmlns:dc="http://purl.org/dc/elements/1.1/" xmlns:cc="http://web.resource.org/cc/" xmlns:rdf="http://www.w3.org/1999/02/22-rdf-syntax-ns#" xmlns:sodipodi="http://sodipodi.sourceforge.net/DTD/sodipodi-0.dtd" xmlns:inkscape="http://www.inkscape.org/namespaces/inkscape" version="1.1" baseProfile="full" width="849px" height="849px" viewBox="0 0 850 850" preserveAspectRatio="xMidYMid meet" id="svg_document" visibility="visible" style="zoom: 1;"><!-- Created with macSVG - https://macsvg.org/ - https://github.com/dsward2/macsvg/ --><title id="svg_document_title">Untitled.svg</title><g id="main_group" visibility="visible"><rect x="-0.75px" height="1024px" y="-0.25px" id="background_rect" width="1024px" fill="#ffffff" visibility="hidden"></rect></g><defs id="svg_document_defs" visibility="visible"></defs><g id="g1" transform="translate(-57 186)"><circle stroke="none" transform="" id="circle2" stroke-width="21px" cy="240px" fill="white" r="406.9776px" z-index="-1" cx="482px"></circle><rect stroke="#78a24a" height="8.25px" x="72.821297px" id="left-top" stroke-width="3px" width="73.5px" y="22.779005px" fill="#78a24a" transform="scale(4.442193 2.836056) skewY(0) skewX(-21)"></rect><rect stroke="#78a24a" height="8.25px" x="43.880413px" id="left-mid" stroke-width="3px" width="36" y="-21.611881px" fill="#78a24a" transform="rotate(31 114.098602 -16.352755) skewX(0) skewY(-42) translate(0 0) rotate(90 120.289185 142.204956) rotate(0 120.289185 142.204956) scale(4.442193 2.836056) skewY(0) skewX(-21)"></rect><rect stroke="#4e5e34" height="8.25px" x="30.403873px" id="right-mid" stroke-width="3px" width="41.5" y="-104.656624px" fill="#4e5e34" transform="rotate(53 438 449) skewX(0) skewY(-16) translate(0 0) rotate(90 120.289185 142.204956) rotate(0 120.289185 142.204956) scale(4.442193 2.836056) skewY(0) skewX(-21)"></rect><rect stroke="#4e5e34" height="8.25px" x="175.646454px" id="right-top" stroke-width="3px" width="70" y="-104.603317px" fill="#4e5e34" transform="rotate(-20 114.098602 -16.352755) skewX(0) skewY(-53) translate(0 0) rotate(90 120.289185 142.204956) rotate(0 120.289185 142.204956) scale(4.442193 2.836056) skewY(0) skewX(-21)"></rect><rect stroke="#78a24a" height="8.25px" x="72.800385px" id="left-bottom" stroke-width="3px" width="63" y="66.854294px" fill="#78a24a" transform="scale(4.442193 2.836056) skewY(0) skewX(-21)"></rect><rect stroke="#4e5e34" height="8.25px" x="162.654205px" id="right-bottom" stroke-width="3px" width="63" y="-49.159649px" fill="#4e5e34" transform="rotate(-20 114.098602 -16.352755) skewX(0) skewY(-52) translate(0 0) rotate(90 120.289185 142.204956) rotate(0 120.289185 142.204956) scale(4.442193 2.836056) skewY(0) skewX(-21)"></rect><circle stroke="#000000" id="circle1" stroke-width="21px" cy="240px" fill="none" r="414px" cx="482px" transform=""></circle></g></svg>